<svg id="Layer_2" data-name="Layer 2" xmlns="http://www.w3.org/2000/svg" viewBox="0 0 200 160"><defs><style>.cls-1{fill:#ffe45c;}.cls-2{fill:#55ef84;}.cls-3{fill:#ff78b6;}.cls-4{fill:#5965ef;}.cls-5{fill:#242145;}.cls-6{fill:#8087ff;}.cls-7{fill:#fff;}</style></defs><path class="cls-1" d="M193,23.47a12.47,12.47,0,0,1-5.67-8.79l-.94-6.13a.64.64,0,0,0-.2-.39.56.56,0,0,0-.8,0,.64.64,0,0,0-.2.39l-.94,6.13a12.69,12.69,0,0,1-5.67,8.79l-.82.52a.67.67,0,0,0-.19.22.73.73,0,0,0,0,.58.71.71,0,0,0,.19.23l.82.51a12.74,12.74,0,0,1,5.67,8.8l.94,6.13a.59.59,0,0,0,.2.37.58.58,0,0,0,.4.14.58.58,0,0,0,.6-.51l.94-6.13a12.74,12.74,0,0,1,1.87-5,12.57,12.57,0,0,1,3.8-3.78l.81-.51a.63.63,0,0,0,.2-.23.73.73,0,0,0,0-.58.6.6,0,0,0-.2-.22Z"/><path class="cls-2" d="M19.66,124.54A9.38,9.38,0,0,1,15.42,118l-.7-4.59a.54.54,0,0,0-.15-.29.51.51,0,0,0-.3-.13.46.46,0,0,0-.3.13.43.43,0,0,0-.15.29L13.11,118a9.49,9.49,0,0,1-1.41,3.75,9.58,9.58,0,0,1-2.83,2.84l-.61.38a.4.4,0,0,0-.15.17.54.54,0,0,0,0,.22.59.59,0,0,0,0,.22.38.38,0,0,0,.15.16l.61.39a9.53,9.53,0,0,1,4.24,6.58l.71,4.6a.43.43,0,0,0,.45.38.45.45,0,0,0,.29-.1.47.47,0,0,0,.16-.28l.7-4.6a9.39,9.39,0,0,1,4.24-6.58l.62-.39a.43.43,0,0,0,.14-.16.59.59,0,0,0,0-.22.54.54,0,0,0,0-.22.46.46,0,0,0-.14-.17Z"/><path class="cls-3" d="M36.72,141.59a9.32,9.32,0,0,1-2.84-2.82,9.43,9.43,0,0,1-1.4-3.76l-.71-4.59a.44.44,0,0,0-.75-.29.48.48,0,0,0-.15.29l-.7,4.59a9.53,9.53,0,0,1-4.25,6.58l-.61.39a.39.39,0,0,0-.14.17.42.42,0,0,0-.05.22.38.38,0,0,0,.05.21.39.39,0,0,0,.14.17l.61.39a9.53,9.53,0,0,1,4.25,6.58l.7,4.59a.45.45,0,0,0,.16.28.44.44,0,0,0,.29.11.46.46,0,0,0,.3-.11.43.43,0,0,0,.15-.28l.71-4.59a9.43,9.43,0,0,1,1.4-3.76,9.32,9.32,0,0,1,2.84-2.82l.61-.39a.5.5,0,0,0,.15-.17.38.38,0,0,0,0-.21.41.41,0,0,0,0-.22.5.5,0,0,0-.15-.17Z"/><path class="cls-4" d="M76.37,18.8,74.23,9a3,3,0,0,1,2.93-3.64h7a3,3,0,0,1,2.94,2.36l2.41,11.11Z"/><path class="cls-4" d="M50.73,18.81,48.59,9a3,3,0,0,1,2.93-3.64h7A3,3,0,0,1,61.51,7.7l2.41,11.1Z"/><path class="cls-4" d="M102,18.78,99.87,9a3,3,0,0,1,2.93-3.64h7a3,3,0,0,1,2.94,2.36l2.41,11.11Z"/><path class="cls-4" d="M127.64,18.77l-2.13-9.84a3,3,0,0,1,2.93-3.63h7.05a3,3,0,0,1,2.93,2.36l2.42,11.11Z"/><path class="cls-4" d="M176.87,59.74H165.51l2.79,12.89h10.07A3,3,0,0,0,181.3,69l-1.49-6.89A3,3,0,0,0,176.87,59.74Z"/><path class="cls-4" d="M171.44,34.68H160.07l2.8,12.89h10.07a3,3,0,0,0,2.93-3.63l-1.5-6.9A3,3,0,0,0,171.44,34.68Z"/><path class="cls-4" d="M182.31,84.79H170.94l2.8,12.9H183.8a3,3,0,0,0,2.93-3.64l-1.49-6.89A3,3,0,0,0,182.31,84.79Z"/><path class="cls-4" d="M187.74,109.85H176.37l2.8,12.89h10.07a3,3,0,0,0,2.93-3.63l-1.5-6.9A3,3,0,0,0,187.74,109.85Z"/><path class="cls-5" d="M173.08,144.42H57.29a7.56,7.56,0,0,1-7-5.77L26.5,28.51A4.52,4.52,0,0,1,31,22.74h115.8a7.54,7.54,0,0,1,7,5.77l23.76,110.14A4.51,4.51,0,0,1,173.08,144.42Z"/><path class="cls-5" d="M27.71,24l6.22-6.73s4,6,3.79,6.31-8,3.46-8,3.46Z"/><polygon class="cls-5" points="176.41 143.14 183.08 135.85 179.36 134.29 173.99 140.28 176.41 143.14"/><path class="cls-6" d="M179.5,137.4H63.7a7.56,7.56,0,0,1-7-5.78L32.92,21.49a4.52,4.52,0,0,1,4.53-5.77h115.8a7.55,7.55,0,0,1,7,5.77L184,131.62A4.52,4.52,0,0,1,179.5,137.4Z"/><path class="cls-5" d="M172.93,129.39H69.31a5,5,0,0,1-4.66-3.83L43.34,26.78a3,3,0,0,1,3-3.83H150a5,5,0,0,1,4.65,3.83l21.31,98.78A3,3,0,0,1,172.93,129.39Z"/><rect class="cls-6" x="49.97" y="74.64" width="36.96" height="3"/><rect class="cls-6" x="132.81" y="74.64" width="36.96" height="3"/><path class="cls-6" d="M127.33,131.89l-2.79-10.62a6.5,6.5,0,0,1,6.28-8.14h30.49v3H130.82a3.5,3.5,0,0,0-3.38,4.38l2.79,10.62Z"/><rect class="cls-6" x="78.07" y="114.53" width="3" height="18.01" transform="translate(-28.05 23.48) rotate(-14.3)"/><rect class="cls-6" x="94.44" y="114.09" width="3" height="18.01" transform="translate(-27.43 27.51) rotate(-14.3)"/><polygon class="cls-6" points="86.24 58.85 67.36 46.19 54.76 36.55 51.33 20.37 54.26 19.75 57.46 34.84 69.11 43.75 87.91 56.35 86.24 58.85"/><rect class="cls-6" x="139.62" y="19.87" width="3" height="22.64" transform="translate(-3.4 31.71) rotate(-12.67)"/><ellipse class="cls-6" cx="67.14" cy="44.1" rx="4.57" ry="5.68" transform="translate(-10.52 64.63) rotate(-48.11)"/><ellipse class="cls-3" cx="144.2" cy="44.1" rx="4.57" ry="5.68" transform="translate(15.08 121.99) rotate(-48.11)"/><rect class="cls-6" x="124.9" y="19.94" width="3" height="16.54" transform="translate(-3.11 28.41) rotate(-12.67)"/><ellipse class="cls-2" cx="128.09" cy="36.21" rx="4.57" ry="5.68" transform="translate(15.61 107.38) rotate(-48.11)"/><ellipse class="cls-2" cx="77.16" cy="114.06" rx="4.63" ry="5.6" transform="translate(-59.15 94.43) rotate(-47.73)"/><ellipse class="cls-1" cx="93.95" cy="114" rx="4.63" ry="5.6" transform="translate(-53.6 106.83) rotate(-47.73)"/><ellipse class="cls-6" cx="160.47" cy="114" rx="4.63" ry="5.6" transform="translate(-31.83 156.05) rotate(-47.73)"/><path class="cls-7" d="M128.24,52.44a61.39,61.39,0,0,0-13.84-4,27.75,27.75,0,0,0-1,3.4,48.79,48.79,0,0,0-14.48,0c-.66-1.06-1.59-2.4-2.35-3.39a44.13,44.13,0,0,0-12.29,4c-5.89,12.22-5.81,24.14-2.41,35.88h0a66,66,0,0,0,17.58,8,30.84,30.84,0,0,0,2.35-5.53,43.34,43.34,0,0,1-5.9-2.57c.39-.33.77-.67,1.13-1,11.34,4.77,22.66,4.77,32,0,.5.36,1,.7,1.53,1a26.68,26.68,0,0,1-4.92,2.57,49.91,49.91,0,0,0,4.51,5.53,41.46,41.46,0,0,0,14.46-8h0C143.29,74.72,137.44,62.91,128.24,52.44ZM101.32,81.11c-3.12,0-6.24-2.86-6.92-6.34s1.28-6.34,4.46-6.34,6.3,2.86,6.93,6.34S104.5,81.11,101.32,81.11Zm21,0c-3.13,0-6.25-2.86-6.92-6.34s1.28-6.34,4.46-6.34,6.3,2.86,6.92,6.34S125.53,81.11,122.35,81.11Z"/><path class="cls-4" d="M37.8,59.74H27.73a3,3,0,0,0-2.93,3.63l1.5,6.9a3,3,0,0,0,2.93,2.36H40.59Z"/><path class="cls-4" d="M32.36,34.68H22.3a3,3,0,0,0-2.93,3.63l1.49,6.9a3,3,0,0,0,2.93,2.36H35.16Z"/><path class="cls-4" d="M43.23,84.79H33.17a3,3,0,0,0-2.94,3.64l1.5,6.89a3,3,0,0,0,2.93,2.37H46Z"/><path class="cls-4" d="M48.66,109.85H38.6a3,3,0,0,0-2.93,3.63l1.49,6.9a3,3,0,0,0,2.93,2.36H51.46Z"/><path class="cls-4" d="M141.25,140.29l2.14,9.83a3,3,0,0,1-2.93,3.64h-7.05a3,3,0,0,1-2.94-2.37l-2.41-11.1Z"/><path class="cls-4" d="M166.89,140.27l2.14,9.84a3,3,0,0,1-2.93,3.64H159a3,3,0,0,1-2.93-2.36l-2.41-11.11Z"/><path class="cls-4" d="M115.61,140.3l2.14,9.84a3,3,0,0,1-2.93,3.64h-7a3,3,0,0,1-2.94-2.36l-2.41-11.11Z"/><path class="cls-4" d="M90,140.32l2.14,9.83a3,3,0,0,1-2.93,3.64H82.13a3,3,0,0,1-2.94-2.36l-2.41-11.1Z"/></svg>